<mxfile host="Electron" agent="Mozilla/5.0 (Windows NT 10.0; Win64; x64) AppleWebKit/537.36 (KHTML, like Gecko) draw.io/26.1.1 Chrome/132.0.6834.210 Electron/34.3.3 Safari/537.36" version="26.1.1">
  <diagram name="Page-1" id="2Md1uHLDYz6bsrXwS7ts">
    <mxGraphModel dx="1050" dy="669" grid="1" gridSize="10" guides="1" tooltips="1" connect="1" arrows="1" fold="1" page="1" pageScale="1" pageWidth="850" pageHeight="1100" math="0" shadow="0">
      <root>
        <mxCell id="0" />
        <mxCell id="1" parent="0" />
        <mxCell id="S4LwoSSliJeHYcPUSIK7-5" value="" style="edgeStyle=orthogonalEdgeStyle;rounded=0;orthogonalLoop=1;jettySize=auto;html=1;" parent="1" source="S4LwoSSliJeHYcPUSIK7-1" target="S4LwoSSliJeHYcPUSIK7-4" edge="1">
          <mxGeometry relative="1" as="geometry" />
        </mxCell>
        <mxCell id="S4LwoSSliJeHYcPUSIK7-1" value="&lt;font style=&quot;font-size: 19px;&quot;&gt;&lt;b&gt;&lt;u&gt;DATA FLOW DIAGRAM&amp;nbsp;&lt;/u&gt;&lt;/b&gt;&lt;/font&gt;" style="text;html=1;align=center;verticalAlign=middle;whiteSpace=wrap;rounded=0;" parent="1" vertex="1">
          <mxGeometry y="10" width="250" height="100" as="geometry" />
        </mxCell>
        <mxCell id="S4LwoSSliJeHYcPUSIK7-4" value="&lt;b style=&quot;&quot;&gt;&lt;u style=&quot;&quot;&gt;&lt;font style=&quot;font-size: 16px;&quot;&gt;ALSO CALLED DATA LINEAGE&lt;/font&gt;&lt;/u&gt;&lt;/b&gt;" style="text;html=1;align=center;verticalAlign=middle;whiteSpace=wrap;rounded=0;" parent="1" vertex="1">
          <mxGeometry x="330" y="10" width="250" height="100" as="geometry" />
        </mxCell>
        <mxCell id="S4LwoSSliJeHYcPUSIK7-6" value="" style="rounded=0;whiteSpace=wrap;html=1;" parent="1" vertex="1">
          <mxGeometry x="50" y="170" width="130" height="390" as="geometry" />
        </mxCell>
        <mxCell id="S4LwoSSliJeHYcPUSIK7-7" value="SOURCE&amp;nbsp;" style="rounded=1;whiteSpace=wrap;html=1;" parent="1" vertex="1">
          <mxGeometry x="70" y="160" width="90" height="30" as="geometry" />
        </mxCell>
        <mxCell id="S4LwoSSliJeHYcPUSIK7-26" style="edgeStyle=orthogonalEdgeStyle;rounded=0;orthogonalLoop=1;jettySize=auto;html=1;entryX=0;entryY=0.25;entryDx=0;entryDy=0;" parent="1" source="S4LwoSSliJeHYcPUSIK7-8" target="S4LwoSSliJeHYcPUSIK7-18" edge="1">
          <mxGeometry relative="1" as="geometry">
            <Array as="points">
              <mxPoint x="250" y="268" />
            </Array>
          </mxGeometry>
        </mxCell>
        <mxCell id="S4LwoSSliJeHYcPUSIK7-28" style="edgeStyle=orthogonalEdgeStyle;rounded=0;orthogonalLoop=1;jettySize=auto;html=1;entryX=0;entryY=0.5;entryDx=0;entryDy=0;" parent="1" edge="1">
          <mxGeometry relative="1" as="geometry">
            <mxPoint x="139.28999999999996" y="265" as="sourcePoint" />
            <mxPoint x="295" y="310" as="targetPoint" />
            <Array as="points">
              <mxPoint x="200" y="265" />
              <mxPoint x="200" y="310" />
            </Array>
          </mxGeometry>
        </mxCell>
        <mxCell id="S4LwoSSliJeHYcPUSIK7-8" value="" style="image;aspect=fixed;html=1;points=[];align=center;fontSize=12;image=img/lib/azure2/general/Folder_Blank.svg;" parent="1" vertex="1">
          <mxGeometry x="90" y="250" width="49.29" height="40" as="geometry" />
        </mxCell>
        <mxCell id="S4LwoSSliJeHYcPUSIK7-35" style="edgeStyle=orthogonalEdgeStyle;rounded=0;orthogonalLoop=1;jettySize=auto;html=1;" parent="1" source="S4LwoSSliJeHYcPUSIK7-9" target="S4LwoSSliJeHYcPUSIK7-33" edge="1">
          <mxGeometry relative="1" as="geometry" />
        </mxCell>
        <mxCell id="S4LwoSSliJeHYcPUSIK7-9" value="" style="image;aspect=fixed;html=1;points=[];align=center;fontSize=12;image=img/lib/azure2/general/Folder_Blank.svg;" parent="1" vertex="1">
          <mxGeometry x="90" y="400" width="49.29" height="40" as="geometry" />
        </mxCell>
        <mxCell id="S4LwoSSliJeHYcPUSIK7-10" value="" style="image;aspect=fixed;html=1;points=[];align=center;fontSize=12;image=img/lib/azure2/general/File.svg;" parent="1" vertex="1">
          <mxGeometry x="130" y="270" width="24.35" height="30" as="geometry" />
        </mxCell>
        <mxCell id="S4LwoSSliJeHYcPUSIK7-11" value="" style="image;aspect=fixed;html=1;points=[];align=center;fontSize=12;image=img/lib/azure2/general/File.svg;" parent="1" vertex="1">
          <mxGeometry x="120" y="420" width="24.35" height="30" as="geometry" />
        </mxCell>
        <mxCell id="S4LwoSSliJeHYcPUSIK7-12" value="" style="rounded=0;whiteSpace=wrap;html=1;fillColor=none;strokeColor=#d79b00;" parent="1" vertex="1">
          <mxGeometry x="295" y="170" width="130" height="390" as="geometry" />
        </mxCell>
        <mxCell id="S4LwoSSliJeHYcPUSIK7-13" value="BRONZE LAYER" style="rounded=1;whiteSpace=wrap;html=1;fillColor=#ffe6cc;strokeColor=#d79b00;" parent="1" vertex="1">
          <mxGeometry x="297.5" y="130" width="125" height="40" as="geometry" />
        </mxCell>
        <mxCell id="S4LwoSSliJeHYcPUSIK7-15" value="crm_cust_info" style="rounded=1;whiteSpace=wrap;html=1;fillColor=#ffe6cc;strokeColor=#d79b00;" parent="1" vertex="1">
          <mxGeometry x="296.25" y="220" width="126.25" height="30" as="geometry" />
        </mxCell>
        <mxCell id="S4LwoSSliJeHYcPUSIK7-18" value="crm_ord_info" style="rounded=1;whiteSpace=wrap;html=1;fillColor=#ffe6cc;strokeColor=#d79b00;" parent="1" vertex="1">
          <mxGeometry x="296.88" y="260" width="126.25" height="30" as="geometry" />
        </mxCell>
        <mxCell id="S4LwoSSliJeHYcPUSIK7-19" value="crm_sales_details" style="rounded=1;whiteSpace=wrap;html=1;fillColor=#ffe6cc;strokeColor=#d79b00;" parent="1" vertex="1">
          <mxGeometry x="295" y="300" width="126.25" height="30" as="geometry" />
        </mxCell>
        <mxCell id="S4LwoSSliJeHYcPUSIK7-29" style="edgeStyle=orthogonalEdgeStyle;rounded=0;orthogonalLoop=1;jettySize=auto;html=1;entryX=0.017;entryY=0.161;entryDx=0;entryDy=0;entryPerimeter=0;" parent="1" source="S4LwoSSliJeHYcPUSIK7-8" target="S4LwoSSliJeHYcPUSIK7-12" edge="1">
          <mxGeometry relative="1" as="geometry">
            <Array as="points">
              <mxPoint x="200" y="270" />
              <mxPoint x="200" y="233" />
            </Array>
          </mxGeometry>
        </mxCell>
        <mxCell id="S4LwoSSliJeHYcPUSIK7-32" value="erp_cust_az12" style="rounded=1;whiteSpace=wrap;html=1;fillColor=#ffe6cc;strokeColor=#d79b00;" parent="1" vertex="1">
          <mxGeometry x="299" y="390" width="126.25" height="30" as="geometry" />
        </mxCell>
        <mxCell id="S4LwoSSliJeHYcPUSIK7-33" value="&lt;span style=&quot;color: rgb(51, 51, 51);&quot;&gt;erp_loc_a101&lt;/span&gt;" style="rounded=1;whiteSpace=wrap;html=1;fillColor=#ffe6cc;strokeColor=#d79b00;" parent="1" vertex="1">
          <mxGeometry x="299" y="430" width="126.25" height="30" as="geometry" />
        </mxCell>
        <mxCell id="TIjPrPAgQ8BuNuRKsCWM-27" style="edgeStyle=orthogonalEdgeStyle;rounded=0;orthogonalLoop=1;jettySize=auto;html=1;entryX=0;entryY=0.5;entryDx=0;entryDy=0;" parent="1" source="S4LwoSSliJeHYcPUSIK7-34" target="TIjPrPAgQ8BuNuRKsCWM-17" edge="1">
          <mxGeometry relative="1" as="geometry" />
        </mxCell>
        <mxCell id="S4LwoSSliJeHYcPUSIK7-34" value="&lt;span style=&quot;color: rgb(51, 51, 51);&quot;&gt;erp_px_cat_g1v2&lt;/span&gt;" style="rounded=1;whiteSpace=wrap;html=1;fillColor=#ffe6cc;strokeColor=#d79b00;" parent="1" vertex="1">
          <mxGeometry x="296.25" y="470" width="126.25" height="30" as="geometry" />
        </mxCell>
        <mxCell id="S4LwoSSliJeHYcPUSIK7-38" style="edgeStyle=orthogonalEdgeStyle;rounded=0;orthogonalLoop=1;jettySize=auto;html=1;entryX=0.029;entryY=0.602;entryDx=0;entryDy=0;entryPerimeter=0;" parent="1" source="S4LwoSSliJeHYcPUSIK7-9" target="S4LwoSSliJeHYcPUSIK7-12" edge="1">
          <mxGeometry relative="1" as="geometry">
            <Array as="points">
              <mxPoint x="220" y="420" />
              <mxPoint x="220" y="405" />
            </Array>
          </mxGeometry>
        </mxCell>
        <mxCell id="S4LwoSSliJeHYcPUSIK7-39" style="edgeStyle=orthogonalEdgeStyle;rounded=0;orthogonalLoop=1;jettySize=auto;html=1;entryX=0.029;entryY=0.817;entryDx=0;entryDy=0;entryPerimeter=0;" parent="1" source="S4LwoSSliJeHYcPUSIK7-9" target="S4LwoSSliJeHYcPUSIK7-12" edge="1">
          <mxGeometry relative="1" as="geometry">
            <Array as="points">
              <mxPoint x="220" y="420" />
              <mxPoint x="220" y="489" />
            </Array>
          </mxGeometry>
        </mxCell>
        <mxCell id="TIjPrPAgQ8BuNuRKsCWM-10" value="" style="rounded=0;whiteSpace=wrap;html=1;fillColor=none;strokeColor=#666666;fontColor=#333333;" parent="1" vertex="1">
          <mxGeometry x="521.87" y="160" width="130" height="390" as="geometry" />
        </mxCell>
        <mxCell id="TIjPrPAgQ8BuNuRKsCWM-11" value="&lt;font style=&quot;font-size: 14px;&quot;&gt;Silver Layer&lt;/font&gt;" style="rounded=1;whiteSpace=wrap;html=1;fillColor=#f5f5f5;strokeColor=#666666;fontColor=#333333;" parent="1" vertex="1">
          <mxGeometry x="523.75" y="120" width="125" height="40" as="geometry" />
        </mxCell>
        <mxCell id="TIjPrPAgQ8BuNuRKsCWM-12" value="crm_sales_details" style="rounded=1;whiteSpace=wrap;html=1;fillColor=default;strokeColor=#666666;fontColor=#333333;" parent="1" vertex="1">
          <mxGeometry x="524.38" y="220" width="126.25" height="30" as="geometry" />
        </mxCell>
        <mxCell id="TIjPrPAgQ8BuNuRKsCWM-13" value="crm_cust_info" style="rounded=1;whiteSpace=wrap;html=1;fillColor=#f5f5f5;strokeColor=#666666;fontColor=#333333;" parent="1" vertex="1">
          <mxGeometry x="521.87" y="260" width="126.25" height="30" as="geometry" />
        </mxCell>
        <mxCell id="TIjPrPAgQ8BuNuRKsCWM-14" value="crm_prd_info" style="rounded=1;whiteSpace=wrap;html=1;fillColor=#f5f5f5;strokeColor=#666666;fontColor=#333333;" parent="1" vertex="1">
          <mxGeometry x="521.87" y="300" width="126.25" height="30" as="geometry" />
        </mxCell>
        <mxCell id="TIjPrPAgQ8BuNuRKsCWM-15" value="erp_cust_az12" style="rounded=1;whiteSpace=wrap;html=1;fillColor=#f5f5f5;strokeColor=#666666;fontColor=#333333;" parent="1" vertex="1">
          <mxGeometry x="523.75" y="390" width="126.25" height="30" as="geometry" />
        </mxCell>
        <mxCell id="TIjPrPAgQ8BuNuRKsCWM-16" value="erp_loc_a101" style="rounded=1;whiteSpace=wrap;html=1;fillColor=#f5f5f5;strokeColor=#666666;fontColor=#333333;" parent="1" vertex="1">
          <mxGeometry x="521.87" y="430" width="126.25" height="30" as="geometry" />
        </mxCell>
        <mxCell id="TIjPrPAgQ8BuNuRKsCWM-17" value="erp_px_cat_g1v2" style="rounded=1;whiteSpace=wrap;html=1;fillColor=#f5f5f5;strokeColor=#666666;fontColor=#333333;" parent="1" vertex="1">
          <mxGeometry x="520" y="470" width="126.25" height="30" as="geometry" />
        </mxCell>
        <mxCell id="TIjPrPAgQ8BuNuRKsCWM-22" style="edgeStyle=orthogonalEdgeStyle;rounded=0;orthogonalLoop=1;jettySize=auto;html=1;entryX=-0.014;entryY=0.295;entryDx=0;entryDy=0;entryPerimeter=0;" parent="1" source="S4LwoSSliJeHYcPUSIK7-18" target="TIjPrPAgQ8BuNuRKsCWM-10" edge="1">
          <mxGeometry relative="1" as="geometry" />
        </mxCell>
        <mxCell id="TIjPrPAgQ8BuNuRKsCWM-23" style="edgeStyle=orthogonalEdgeStyle;rounded=0;orthogonalLoop=1;jettySize=auto;html=1;entryX=-0.014;entryY=0.192;entryDx=0;entryDy=0;entryPerimeter=0;" parent="1" source="S4LwoSSliJeHYcPUSIK7-15" target="TIjPrPAgQ8BuNuRKsCWM-10" edge="1">
          <mxGeometry relative="1" as="geometry" />
        </mxCell>
        <mxCell id="TIjPrPAgQ8BuNuRKsCWM-24" style="edgeStyle=orthogonalEdgeStyle;rounded=0;orthogonalLoop=1;jettySize=auto;html=1;entryX=-0.014;entryY=0.397;entryDx=0;entryDy=0;entryPerimeter=0;" parent="1" source="S4LwoSSliJeHYcPUSIK7-19" target="TIjPrPAgQ8BuNuRKsCWM-10" edge="1">
          <mxGeometry relative="1" as="geometry" />
        </mxCell>
        <mxCell id="TIjPrPAgQ8BuNuRKsCWM-25" style="edgeStyle=orthogonalEdgeStyle;rounded=0;orthogonalLoop=1;jettySize=auto;html=1;entryX=0.013;entryY=0.628;entryDx=0;entryDy=0;entryPerimeter=0;" parent="1" source="S4LwoSSliJeHYcPUSIK7-32" target="TIjPrPAgQ8BuNuRKsCWM-10" edge="1">
          <mxGeometry relative="1" as="geometry" />
        </mxCell>
        <mxCell id="TIjPrPAgQ8BuNuRKsCWM-26" style="edgeStyle=orthogonalEdgeStyle;rounded=0;orthogonalLoop=1;jettySize=auto;html=1;entryX=0.001;entryY=0.73;entryDx=0;entryDy=0;entryPerimeter=0;" parent="1" source="S4LwoSSliJeHYcPUSIK7-33" target="TIjPrPAgQ8BuNuRKsCWM-10" edge="1">
          <mxGeometry relative="1" as="geometry" />
        </mxCell>
        <mxCell id="Crw-vuOJn6HFzCzBc2bV-1" value="" style="rounded=0;whiteSpace=wrap;html=1;fillColor=none;strokeColor=#d6b656;gradientColor=#ffd966;" vertex="1" parent="1">
          <mxGeometry x="719.87" y="160" width="130" height="390" as="geometry" />
        </mxCell>
        <mxCell id="Crw-vuOJn6HFzCzBc2bV-2" value="&lt;span style=&quot;font-size: 14px;&quot;&gt;Gold Layer&lt;/span&gt;" style="rounded=1;whiteSpace=wrap;html=1;fillColor=#fff2cc;strokeColor=#d6b656;gradientColor=#ffd966;" vertex="1" parent="1">
          <mxGeometry x="721.75" y="120" width="125" height="40" as="geometry" />
        </mxCell>
        <mxCell id="Crw-vuOJn6HFzCzBc2bV-3" value="dim.sales" style="rounded=1;whiteSpace=wrap;html=1;fillColor=default;strokeColor=#d6b656;gradientColor=#ffd966;" vertex="1" parent="1">
          <mxGeometry x="720.5" y="240" width="126.25" height="30" as="geometry" />
        </mxCell>
        <mxCell id="Crw-vuOJn6HFzCzBc2bV-5" value="dim.customers" style="rounded=1;whiteSpace=wrap;html=1;fillColor=#fff2cc;strokeColor=#d6b656;gradientColor=#ffd966;" vertex="1" parent="1">
          <mxGeometry x="719.87" y="300" width="126.25" height="30" as="geometry" />
        </mxCell>
        <mxCell id="Crw-vuOJn6HFzCzBc2bV-6" value="dim.products" style="rounded=1;whiteSpace=wrap;html=1;fillColor=#fff2cc;strokeColor=#d6b656;gradientColor=#ffd966;" vertex="1" parent="1">
          <mxGeometry x="721.75" y="360" width="126.25" height="30" as="geometry" />
        </mxCell>
        <mxCell id="Crw-vuOJn6HFzCzBc2bV-10" value="" style="endArrow=none;html=1;rounded=0;entryX=0;entryY=0.25;entryDx=0;entryDy=0;jumpStyle=gap;" edge="1" parent="1" target="Crw-vuOJn6HFzCzBc2bV-1">
          <mxGeometry width="50" height="50" relative="1" as="geometry">
            <mxPoint x="651.87" y="240" as="sourcePoint" />
            <mxPoint x="711.87" y="220" as="targetPoint" />
          </mxGeometry>
        </mxCell>
        <mxCell id="Crw-vuOJn6HFzCzBc2bV-14" value="" style="endArrow=none;html=1;rounded=0;exitX=1.016;exitY=0.306;exitDx=0;exitDy=0;exitPerimeter=0;jumpStyle=gap;" edge="1" parent="1" source="TIjPrPAgQ8BuNuRKsCWM-10">
          <mxGeometry width="50" height="50" relative="1" as="geometry">
            <mxPoint x="670" y="360" as="sourcePoint" />
            <mxPoint x="720" y="310" as="targetPoint" />
          </mxGeometry>
        </mxCell>
        <mxCell id="Crw-vuOJn6HFzCzBc2bV-15" value="" style="endArrow=none;html=1;rounded=0;entryX=0.998;entryY=0.617;entryDx=0;entryDy=0;entryPerimeter=0;exitX=0.016;exitY=0.408;exitDx=0;exitDy=0;exitPerimeter=0;jumpStyle=gap;" edge="1" parent="1" source="Crw-vuOJn6HFzCzBc2bV-1" target="TIjPrPAgQ8BuNuRKsCWM-10">
          <mxGeometry width="50" height="50" relative="1" as="geometry">
            <mxPoint x="670" y="340" as="sourcePoint" />
            <mxPoint x="680" y="350" as="targetPoint" />
          </mxGeometry>
        </mxCell>
        <mxCell id="Crw-vuOJn6HFzCzBc2bV-16" value="" style="endArrow=none;html=1;rounded=0;jumpStyle=gap;" edge="1" parent="1">
          <mxGeometry width="50" height="50" relative="1" as="geometry">
            <mxPoint x="650.63" y="440" as="sourcePoint" />
            <mxPoint x="720" y="320" as="targetPoint" />
          </mxGeometry>
        </mxCell>
        <mxCell id="Crw-vuOJn6HFzCzBc2bV-17" value="" style="endArrow=none;html=1;rounded=0;entryX=-0.008;entryY=0.566;entryDx=0;entryDy=0;entryPerimeter=0;jumpStyle=gap;" edge="1" parent="1" target="Crw-vuOJn6HFzCzBc2bV-1">
          <mxGeometry width="50" height="50" relative="1" as="geometry">
            <mxPoint x="646.25" y="480" as="sourcePoint" />
            <mxPoint x="710" y="380" as="targetPoint" />
          </mxGeometry>
        </mxCell>
        <mxCell id="Crw-vuOJn6HFzCzBc2bV-18" value="" style="endArrow=none;html=1;rounded=0;jumpStyle=gap;" edge="1" parent="1">
          <mxGeometry width="50" height="50" relative="1" as="geometry">
            <mxPoint x="650.63" y="320" as="sourcePoint" />
            <mxPoint x="720" y="377" as="targetPoint" />
          </mxGeometry>
        </mxCell>
      </root>
    </mxGraphModel>
  </diagram>
</mxfile>
